<?xml version="1.0" standalone="no"?>
<!DOCTYPE svg PUBLIC "-//W3C//DTD SVG 20010904//EN"
 "http://www.w3.org/TR/2001/REC-SVG-20010904/DTD/svg10.dtd">
<svg version="1.0" xmlns="http://www.w3.org/2000/svg"
 width="360.000000pt" height="360.000000pt" viewBox="0 0 360.000000 360.000000"
 preserveAspectRatio="xMidYMid meet">

<g transform="translate(0.000000,360.000000) scale(0.100000,-0.100000)"
fill="#000000" stroke="none">
<path d="M835 2996 c-154 -38 -266 -158 -295 -318 -6 -30 -9 -142 -8 -248 l3
-193 59 -14 c89 -20 186 -76 254 -147 90 -94 131 -186 148 -338 l6 -58 798 0
798 0 6 58 c17 152 58 244 148 338 64 67 159 124 241 145 l48 12 -3 236 c-3
221 -5 240 -27 296 -33 82 -132 181 -216 215 l-60 25 -925 2 c-704 1 -937 -1
-975 -11z m191 -180 c16 -12 19 -27 19 -86 0 -59 -3 -74 -19 -86 -50 -36 -88
-7 -94 72 -3 49 0 63 18 87 24 30 47 34 76 13z m796 -3 c14 -12 18 -31 18 -84
0 -59 -3 -70 -22 -83 -30 -21 -44 -20 -68 4 -16 16 -20 33 -20 80 0 47 4 64
20 80 24 24 47 25 72 3z m798 -3 c16 -16 20 -33 20 -80 0 -47 -4 -64 -20 -80
-24 -24 -38 -25 -68 -4 -19 13 -22 24 -22 84 0 60 3 71 22 84 30 21 44 20 68
-4z m-1196 -262 c17 -23 22 -123 8 -144 -16 -24 -48 -33 -73 -21 -22 11 -24
20 -27 84 -2 55 1 74 13 87 23 23 61 20 79 -6z m791 8 c23 -17 32 -110 13
-145 -21 -39 -55 -45 -84 -16 -20 20 -24 34 -24 80 0 80 44 118 95 81z m-1181
-218 c10 -13 16 -43 16 -73 0 -63 -20 -95 -60 -95 -40 0 -60 32 -60 95 0 63
20 95 60 95 18 0 34 -8 44 -22z m794 10 c7 -7 12 -41 12 -83 0 -42 -5 -76 -12
-83 -17 -17 -58 -15 -80 5 -24 22 -26 128 -1 155 18 20 63 24 81 6z m794 -5
c14 -12 18 -31 18 -76 0 -70 -17 -97 -61 -97 -37 0 -49 24 -49 95 0 31 5 65
10 76 13 24 57 25 82 2z"/>
<path d="M342 2100 c-111 -40 -204 -135 -244 -247 -29 -84 -23 -216 14 -296
34 -71 58 -101 137 -167 97 -81 105 -102 111 -317 l5 -183 33 -32 32 -33 226
-3 225 -3 -3 503 -3 503 -33 67 c-42 86 -109 153 -192 192 -57 27 -77 31 -160
33 -73 2 -107 -2 -148 -17z"/>
<path d="M2999 2105 c-114 -42 -190 -109 -241 -213 l-33 -67 -3 -503 -3 -503
225 3 226 3 32 33 33 32 5 183 c6 215 14 236 111 317 79 66 103 96 137 167 37
80 43 212 14 296 -41 115 -134 208 -248 247 -67 23 -199 26 -255 5z"/>
<path d="M1000 1195 l0 -375 800 0 800 0 0 375 0 375 -800 0 -800 0 0 -375z"/>
<path d="M500 687 c0 -49 60 -97 120 -97 60 0 120 48 120 97 0 23 -2 23 -120
23 -118 0 -120 0 -120 -23z"/>
<path d="M2860 687 c0 -49 60 -97 120 -97 60 0 120 48 120 97 0 23 -2 23 -120
23 -118 0 -120 0 -120 -23z"/>
</g>
</svg>
